HIERARCHY
ROOT joint_Root
{
	OFFSET 0.0 0.0 0.0
	CHANNELS 6 Xposition Yposition Zposition Zrotation Xrotation Yrotation 
	JOINT Hips
	{
		OFFSET 4.5925 91.4895 -427.239
		CHANNELS 6 Xposition Yposition Zposition Zrotation Xrotation Yrotation 
		JOINT Spine
		{
			OFFSET 15.7357 0.0 0.0
			CHANNELS 6 Xposition Yposition Zposition Zrotation Xrotation Yrotation 
			JOINT Chest
			{
				OFFSET 8.98455 -0.406207 0.0
				CHANNELS 6 Xposition Yposition Zposition Zrotation Xrotation Yrotation 
				JOINT Neck
				{
					OFFSET 16.3773 0.0 0.0
					CHANNELS 6 Xposition Yposition Zposition Zrotation Xrotation Yrotation 
					JOINT Head
					{
						OFFSET 6.45672 0.0 0.0
						CHANNELS 6 Xposition Yposition Zposition Zrotation Xrotation Yrotation 
						End Site
						{
							OFFSET 0.0 0.0 0.0
						}
					}
				}
				JOINT Shoulder_L
				{
					OFFSET 12.9942 -0.242716 4.98039
					CHANNELS 6 Xposition Yposition Zposition Zrotation Xrotation Yrotation 
					JOINT UpperArm_L
					{
						OFFSET 5.34809 0.0 0.0
						CHANNELS 6 Xposition Yposition Zposition Zrotation Xrotation Yrotation 
						JOINT LowerArm_L
						{
							OFFSET 24.3286 1.87007e-05 0.0
							CHANNELS 6 Xposition Yposition Zposition Zrotation Xrotation Yrotation 
							JOINT Hand_L
							{
								OFFSET 22.2916 0.0 0.0
								CHANNELS 6 Xposition Yposition Zposition Zrotation Xrotation Yrotation 
								End Site
								{
									OFFSET 0.0 0.0 0.0
								}
							}
						}
					}
				}
				JOINT Shoulder_R
				{
					OFFSET 12.9945 -0.242716 -4.98039
					CHANNELS 6 Xposition Yposition Zposition Zrotation Xrotation Yrotation 
					JOINT UpperArm_R
					{
						OFFSET -5.34813 0.0 0.0
						CHANNELS 6 Xposition Yposition Zposition Zrotation Xrotation Yrotation 
						JOINT LowerArm_R
						{
							OFFSET -24.3289 0.000322201 0.0
							CHANNELS 6 Xposition Yposition Zposition Zrotation Xrotation Yrotation 
							JOINT Hand_R
							{
								OFFSET -22.2915 -0.000108084 0.0
								CHANNELS 6 Xposition Yposition Zposition Zrotation Xrotation Yrotation 
								End Site
								{
									OFFSET 0.0 0.0 0.0
								}
							}
						}
					}
				}
			}
		}
		JOINT UpperLeg_L
		{
			OFFSET -2.19248 -6.46944 0.0
			CHANNELS 6 Xposition Yposition Zposition Zrotation Xrotation Yrotation 
			JOINT LowerLeg_L
			{
				OFFSET 39.0811 0.0 -1.23785e-05
				CHANNELS 6 Xposition Yposition Zposition Zrotation Xrotation Yrotation 
				JOINT Foot_L
				{
					OFFSET 40.9854 0.0 -1.26872e-05
					CHANNELS 6 Xposition Yposition Zposition Zrotation Xrotation Yrotation 
					JOINT Toes_L
					{
						OFFSET 11.7543 0.0 0.0
						CHANNELS 6 Xposition Yposition Zposition Zrotation Xrotation Yrotation 
						End Site
						{
							OFFSET 0.0 0.0 0.0
						}
					}
				}
			}
		}
		JOINT UpperLeg_R
		{
			OFFSET -2.19251 6.46944 0.0
			CHANNELS 6 Xposition Yposition Zposition Zrotation Xrotation Yrotation 
			JOINT LowerLeg_R
			{
				OFFSET -39.0811 -0.00228153 -0.0401928
				CHANNELS 6 Xposition Yposition Zposition Zrotation Xrotation Yrotation 
				JOINT Foot_R
				{
					OFFSET -40.9854 0.0 0.0
					CHANNELS 6 Xposition Yposition Zposition Zrotation Xrotation Yrotation 
					JOINT Toes_R
					{
						OFFSET -11.7543 0.0 0.0
						CHANNELS 6 Xposition Yposition Zposition Zrotation Xrotation Yrotation 
						End Site
						{
							OFFSET 0.0 0.0 0.0
						}
					}
				}
			}
		}
	}
}
MOTION
Frames:	4
Frame Time:	0.0333333
0.000000 0.000000 0.000000 0.000000 0.000000 -0.000000 -1.308430 90.048200 -4.569700 88.896600 -1.989600 15.710800 15.735700 0.000005 -0.000001 88.127900 76.502300 -87.932800 8.984550 -0.406207 -0.000000 19.218000 -0.844171 0.534261 16.377300 -0.000001 -0.000001 5.439050 -4.277480 3.460330 6.456720 -0.000001 -0.000000 -4.929780 -2.990770 0.252480 12.994200 -0.242716 4.980390 -91.137400 5.841790 -78.962700 5.348090 -0.000007 -0.000001 -51.145800 43.461400 -32.217400 24.328600 0.000019 0.000005 6.770430 17.855000 -21.166300 22.291600 -0.000001 0.000005 11.082200 5.270600 0.881899 12.994500 -0.242716 -4.980390 89.235100 10.854500 -85.944800 -5.348130 -0.000001 -0.000004 -58.402600 30.987600 -21.766900 -24.328900 0.000322 -0.000009 2.539210 5.896520 -23.357100 -22.291500 -0.000108 -0.000004 16.325600 5.385610 -2.475570 -2.192480 -6.469440 -0.000000 -173.436000 -8.277390 0.125841 39.081100 -0.000007 -0.000012 -0.203940 0.284112 35.671800 40.985400 -0.000006 -0.000013 -0.160607 5.427330 -69.992300 11.754300 -0.000000 0.000003 -0.000053 -0.000598 -16.600700 -2.192510 6.469440 -0.000001 174.285000 18.899400 -177.955000 -39.081100 -0.002282 -0.040193 -0.193914 0.285298 34.653500 -40.985400 0.000008 0.000006 3.959820 11.627500 -70.619000 -11.754300 -0.000006 -0.000006 -0.003971 -0.051141 -18.653400
0.000000 0.000000 0.000000 0.000000 0.000000 -0.000000 -1.301620 90.049000 -4.593640 88.883000 -2.003220 15.721900 15.735700 0.000005 -0.000001 88.140800 76.495200 -87.947900 8.984550 -0.406207 -0.000000 19.232200 -0.838878 0.529001 16.377300 -0.000001 -0.000001 5.448790 -4.257590 3.486450 6.456720 -0.000001 -0.000000 -4.936810 -2.936940 0.228193 12.994200 -0.242716 4.980390 -91.125800 5.777820 -78.954200 5.348090 -0.000007 -0.000001 -51.120700 43.462600 -32.288600 24.328600 0.000019 0.000005 6.771870 17.847100 -21.178700 22.291600 -0.000001 0.000005 11.093000 5.270970 0.872048 12.994500 -0.242716 -4.980390 89.219800 10.814000 -85.848500 -5.348130 -0.000001 -0.000004 -58.590800 30.182300 -21.567900 -24.328900 0.000322 -0.000009 2.778650 6.133640 -24.437400 -22.291500 -0.000108 -0.000004 16.516100 5.386680 -2.509310 -2.192480 -6.469440 -0.000000 -173.418000 -8.295310 0.122863 39.081100 -0.000007 -0.000012 -0.203374 0.283253 35.678500 40.985400 -0.000006 -0.000013 -0.138320 5.482620 -69.985800 11.754300 -0.000000 0.000003 -0.000043 -0.000491 -16.596700 -2.192510 6.469440 -0.000001 174.289000 18.913100 -177.953000 -39.081100 -0.002282 -0.040193 -0.193626 0.284955 34.646600 -40.985400 0.000008 0.000006 3.962830 11.652400 -70.600500 -11.754300 -0.000006 -0.000006 -0.004184 -0.053345 -18.743100
0.000000 0.000000 0.000000 0.000000 0.000000 -0.000000 -1.280720 90.052900 -4.629560 88.868500 -2.018790 15.722400 15.735700 0.000005 -0.000001 88.148700 76.495700 -87.953400 8.984550 -0.406207 -0.000000 19.231400 -0.834930 0.533089 16.377300 -0.000001 -0.000001 5.495390 -4.195180 3.461360 6.456720 -0.000001 -0.000000 -4.982690 -2.885450 0.244458 12.994200 -0.242716 4.980390 -91.118100 5.730030 -78.939800 5.348090 -0.000007 -0.000001 -51.197900 43.383700 -32.249900 24.328600 0.000019 0.000005 6.794870 17.845200 -21.246800 22.291600 -0.000001 0.000005 11.109300 5.270070 0.896197 12.994500 -0.242716 -4.980390 89.205800 10.751800 -85.750100 -5.348130 -0.000001 -0.000004 -58.813600 29.058000 -21.275700 -24.328900 0.000322 -0.000009 3.110790 6.389970 -26.034800 -22.291500 -0.000108 -0.000004 16.788600 5.390600 -2.634460 -2.192480 -6.469440 -0.000000 -173.422000 -8.329980 0.097376 39.081100 -0.000007 -0.000012 -0.200045 0.278581 35.682000 40.985400 -0.000006 -0.000013 -0.132903 5.426860 -69.961000 11.754300 -0.000000 0.000003 -0.000054 -0.000606 -16.601000 -2.192510 6.469440 -0.000001 174.300000 18.916700 -177.978000 -39.081100 -0.002282 -0.040193 -0.191256 0.281697 34.630300 -40.985400 0.000008 0.000006 3.958850 11.677900 -70.558700 -11.754300 -0.000006 -0.000006 -0.004081 -0.052283 -18.699900
0.000000 0.000000 0.000000 0.000000 0.000000 -0.000000 -1.267500 90.054700 -4.662060 88.875800 -2.018130 15.698000 15.735700 0.000005 -0.000001 88.061600 76.497800 -87.874700 8.984550 -0.406207 -0.000000 19.226100 -0.875829 0.523204 16.377300 -0.000001 -0.000001 5.509580 -4.119570 3.457070 6.456720 -0.000001 -0.000000 -4.936220 -2.776900 0.208613 12.994200 -0.242716 4.980390 -91.105400 5.665410 -78.940400 5.348090 -0.000007 -0.000001 -51.219200 43.347300 -32.239200 24.328600 0.000019 0.000005 6.789630 17.796000 -21.283500 22.291600 -0.000001 0.000005 11.154100 5.268760 0.931636 12.994500 -0.242716 -4.980390 89.193200 10.680600 -85.654700 -5.348130 -0.000001 -0.000004 -58.811900 28.024200 -21.086600 -24.328900 0.000322 -0.000009 3.292320 6.173580 -28.150900 -22.291500 -0.000108 -0.000004 17.254600 5.394520 -2.759970 -2.192480 -6.469440 -0.000000 -173.448000 -8.298110 0.045756 39.081100 -0.000007 -0.000012 -0.203687 0.283700 35.677400 40.985400 -0.000006 -0.000013 -0.135186 5.408250 -69.933000 11.754300 -0.000000 0.000003 -0.000052 -0.000585 -16.600300 -2.192510 6.469440 -0.000001 174.304000 18.922900 -178.034000 -39.081100 -0.002282 -0.040193 -0.191912 0.282597 34.634900 -40.985400 0.000008 0.000006 3.947590 11.651800 -70.530700 -11.754300 -0.000006 -0.000006 -0.004137 -0.052856 -18.723200
